<?xml version="1.0"?>
<!DOCTYPE svg PUBLIC "-//W3C//DTD SVG 1.1//EN" "http://www.w3.org/Graphics/SVG/1.1/DTD/svg11.dtd">
<svg xmlns="http://www.w3.org/2000/svg" version="1.1" width="800" height="800">
      <rect x="0" y="0" width=" 800" height=" 800" fill=" black"  />
      <rect x="50" y="0" width=" 50" height=" 50" fill=" white"  />
      <rect x="150" y="0" width=" 50" height=" 50" fill=" white"  />
      <rect x="250" y="0" width=" 50" height=" 50" fill=" white"  />
      <rect x="350" y="0" width=" 50" height=" 50" fill=" white"  />
      <rect x="450" y="0" width=" 50" height=" 50" fill=" white"  />
      <rect x="550" y="0" width=" 50" height=" 50" fill=" white"  />
      <rect x="650" y="0" width=" 50" height=" 50" fill=" white"  />
      <rect x="750" y="0" width=" 50" height=" 50" fill=" white"  />
      <rect x="0" y="50" width=" 50" height=" 50" fill=" white"  />
      <rect x="100" y="50" width=" 50" height=" 50" fill=" white"  />
      <rect x="200" y="50" width=" 50" height=" 50" fill=" white"  />
      <rect x="300" y="50" width=" 50" height=" 50" fill=" white"  />
      <rect x="400" y="50" width=" 50" height=" 50" fill=" white"  />
      <rect x="500" y="50" width=" 50" height=" 50" fill=" white"  />
      <rect x="600" y="50" width=" 50" height=" 50" fill=" white"  />
      <rect x="700" y="50" width=" 50" height=" 50" fill=" white"  />
      <rect x="50" y="100" width=" 50" height=" 50" fill=" white"  />
      <rect x="150" y="100" width=" 50" height=" 50" fill=" white"  />
      <rect x="250" y="100" width=" 50" height=" 50" fill=" white"  />
      <rect x="350" y="100" width=" 50" height=" 50" fill=" white"  />
      <rect x="450" y="100" width=" 50" height=" 50" fill=" white"  />
      <rect x="550" y="100" width=" 50" height=" 50" fill=" white"  />
      <rect x="650" y="100" width=" 50" height=" 50" fill=" white"  />
      <rect x="750" y="100" width=" 50" height=" 50" fill=" white"  />
      <rect x="0" y="150" width=" 50" height=" 50" fill=" white"  />
      <rect x="100" y="150" width=" 50" height=" 50" fill=" white"  />
      <rect x="200" y="150" width=" 50" height=" 50" fill=" white"  />
      <rect x="300" y="150" width=" 50" height=" 50" fill=" white"  />
      <rect x="400" y="150" width=" 50" height=" 50" fill=" white"  />
      <rect x="500" y="150" width=" 50" height=" 50" fill=" white"  />
      <rect x="600" y="150" width=" 50" height=" 50" fill=" white"  />
      <rect x="700" y="150" width=" 50" height=" 50" fill=" white"  />
      <rect x="50" y="200" width=" 50" height=" 50" fill=" white"  />
      <rect x="150" y="200" width=" 50" height=" 50" fill=" white"  />
      <rect x="250" y="200" width=" 50" height=" 50" fill=" white"  />
      <rect x="350" y="200" width=" 50" height=" 50" fill=" white"  />
      <rect x="450" y="200" width=" 50" height=" 50" fill=" white"  />
      <rect x="550" y="200" width=" 50" height=" 50" fill=" white"  />
      <rect x="650" y="200" width=" 50" height=" 50" fill=" white"  />
      <rect x="750" y="200" width=" 50" height=" 50" fill=" white"  />
      <rect x="0" y="250" width=" 50" height=" 50" fill=" white"  />
      <rect x="100" y="250" width=" 50" height=" 50" fill=" white"  />
      <rect x="200" y="250" width=" 50" height=" 50" fill=" white"  />
      <rect x="300" y="250" width=" 50" height=" 50" fill=" white"  />
      <rect x="400" y="250" width=" 50" height=" 50" fill=" white"  />
      <rect x="500" y="250" width=" 50" height=" 50" fill=" white"  />
      <rect x="600" y="250" width=" 50" height=" 50" fill=" white"  />
      <rect x="700" y="250" width=" 50" height=" 50" fill=" white"  />
      <rect x="50" y="300" width=" 50" height=" 50" fill=" white"  />
      <rect x="150" y="300" width=" 50" height=" 50" fill=" white"  />
      <rect x="250" y="300" width=" 50" height=" 50" fill=" white"  />
      <rect x="350" y="300" width=" 50" height=" 50" fill=" white"  />
      <rect x="450" y="300" width=" 50" height=" 50" fill=" white"  />
      <rect x="550" y="300" width=" 50" height=" 50" fill=" white"  />
      <rect x="650" y="300" width=" 50" height=" 50" fill=" white"  />
      <rect x="750" y="300" width=" 50" height=" 50" fill=" white"  />
      <rect x="0" y="350" width=" 50" height=" 50" fill=" white"  />
      <rect x="100" y="350" width=" 50" height=" 50" fill=" white"  />
      <rect x="200" y="350" width=" 50" height=" 50" fill=" white"  />
      <rect x="300" y="350" width=" 50" height=" 50" fill=" white"  />
      <rect x="400" y="350" width=" 50" height=" 50" fill=" white"  />
      <rect x="500" y="350" width=" 50" height=" 50" fill=" white"  />
      <rect x="600" y="350" width=" 50" height=" 50" fill=" white"  />
      <rect x="700" y="350" width=" 50" height=" 50" fill=" white"  />
      <rect x="50" y="400" width=" 50" height=" 50" fill=" white"  />
      <rect x="150" y="400" width=" 50" height=" 50" fill=" white"  />
      <rect x="250" y="400" width=" 50" height=" 50" fill=" white"  />
      <rect x="350" y="400" width=" 50" height=" 50" fill=" white"  />
      <rect x="450" y="400" width=" 50" height=" 50" fill=" white"  />
      <rect x="550" y="400" width=" 50" height=" 50" fill=" white"  />
      <rect x="650" y="400" width=" 50" height=" 50" fill=" white"  />
      <rect x="750" y="400" width=" 50" height=" 50" fill=" white"  />
      <rect x="0" y="450" width=" 50" height=" 50" fill=" white"  />
      <rect x="100" y="450" width=" 50" height=" 50" fill=" white"  />
      <rect x="200" y="450" width=" 50" height=" 50" fill=" white"  />
      <rect x="300" y="450" width=" 50" height=" 50" fill=" white"  />
      <rect x="400" y="450" width=" 50" height=" 50" fill=" white"  />
      <rect x="500" y="450" width=" 50" height=" 50" fill=" white"  />
      <rect x="600" y="450" width=" 50" height=" 50" fill=" white"  />
      <rect x="700" y="450" width=" 50" height=" 50" fill=" white"  />
      <rect x="50" y="500" width=" 50" height=" 50" fill=" white"  />
      <rect x="150" y="500" width=" 50" height=" 50" fill=" white"  />
      <rect x="250" y="500" width=" 50" height=" 50" fill=" white"  />
      <rect x="350" y="500" width=" 50" height=" 50" fill=" white"  />
      <rect x="450" y="500" width=" 50" height=" 50" fill=" white"  />
      <rect x="550" y="500" width=" 50" height=" 50" fill=" white"  />
      <rect x="650" y="500" width=" 50" height=" 50" fill=" white"  />
      <rect x="750" y="500" width=" 50" height=" 50" fill=" white"  />
      <rect x="0" y="550" width=" 50" height=" 50" fill=" white"  />
      <rect x="100" y="550" width=" 50" height=" 50" fill=" white"  />
      <rect x="200" y="550" width=" 50" height=" 50" fill=" white"  />
      <rect x="300" y="550" width=" 50" height=" 50" fill=" white"  />
      <rect x="400" y="550" width=" 50" height=" 50" fill=" white"  />
      <rect x="500" y="550" width=" 50" height=" 50" fill=" white"  />
      <rect x="600" y="550" width=" 50" height=" 50" fill=" white"  />
      <rect x="700" y="550" width=" 50" height=" 50" fill=" white"  />
      <rect x="50" y="600" width=" 50" height=" 50" fill=" white"  />
      <rect x="150" y="600" width=" 50" height=" 50" fill=" white"  />
      <rect x="250" y="600" width=" 50" height=" 50" fill=" white"  />
      <rect x="350" y="600" width=" 50" height=" 50" fill=" white"  />
      <rect x="450" y="600" width=" 50" height=" 50" fill=" white"  />
      <rect x="550" y="600" width=" 50" height=" 50" fill=" white"  />
      <rect x="650" y="600" width=" 50" height=" 50" fill=" white"  />
      <rect x="750" y="600" width=" 50" height=" 50" fill=" white"  />
      <rect x="0" y="650" width=" 50" height=" 50" fill=" white"  />
      <rect x="100" y="650" width=" 50" height=" 50" fill=" white"  />
      <rect x="200" y="650" width=" 50" height=" 50" fill=" white"  />
      <rect x="300" y="650" width=" 50" height=" 50" fill=" white"  />
      <rect x="400" y="650" width=" 50" height=" 50" fill=" white"  />
      <rect x="500" y="650" width=" 50" height=" 50" fill=" white"  />
      <rect x="600" y="650" width=" 50" height=" 50" fill=" white"  />
      <rect x="700" y="650" width=" 50" height=" 50" fill=" white"  />
      <rect x="50" y="700" width=" 50" height=" 50" fill=" white"  />
      <rect x="150" y="700" width=" 50" height=" 50" fill=" white"  />
      <rect x="250" y="700" width=" 50" height=" 50" fill=" white"  />
      <rect x="350" y="700" width=" 50" height=" 50" fill=" white"  />
      <rect x="450" y="700" width=" 50" height=" 50" fill=" white"  />
      <rect x="550" y="700" width=" 50" height=" 50" fill=" white"  />
      <rect x="650" y="700" width=" 50" height=" 50" fill=" white"  />
      <rect x="750" y="700" width=" 50" height=" 50" fill=" white"  />
      <rect x="0" y="750" width=" 50" height=" 50" fill=" white"  />
      <rect x="100" y="750" width=" 50" height=" 50" fill=" white"  />
      <rect x="200" y="750" width=" 50" height=" 50" fill=" white"  />
      <rect x="300" y="750" width=" 50" height=" 50" fill=" white"  />
      <rect x="400" y="750" width=" 50" height=" 50" fill=" white"  />
      <rect x="500" y="750" width=" 50" height=" 50" fill=" white"  />
      <rect x="600" y="750" width=" 50" height=" 50" fill=" white"  />
      <rect x="700" y="750" width=" 50" height=" 50" fill=" white"  />
      <circle cx="0" cy="400" r="300" fill="mediumpurple"  />
      <rect x="0" y="200" width=" 750" height=" 50" fill=" darksalmon"  />
      <rect x="0" y="200" width=" 50" height=" 750" fill=" mediumturquoise"  />
      <circle cx="800" cy="800" r="400" fill="seagreen"  />
      <ellipse cx=" 400" cy=" 400" rx=" 150" ry=" 90" fill="sandybrown"  />
      <line x1=" 250" y1=" 401" x2=" 550" y2=" 401" fill=" black"  />
      <line x1=" 250" y1=" 400" x2=" 550" y2=" 400" fill=" black"  />
      <line x1=" 250" y1=" 399" x2=" 550" y2=" 399" fill=" black"  />
      <ellipse cx=" 400" cy=" 0" rx=" 200" ry=" 80" fill="orchid"  />
      <rect x="750" y="0" width=" 50" height=" 600" fill=" slateblue"  />
</svg>
